<svg xmlns="http://www.w3.org/2000/svg" xmlns:svg="http://www.w3.org/2000/svg" id="svg46" width="1037" height="812" version="1.1" viewBox="-75 21 547.691 426.015"><g id="g2" transform="matrix(0.52674974,0,0,0.52674974,-35.850203,8.8272705)"><path style="fill:#fff" id="path1" d="m 442.625,22.3334 h 72.5 c 10.01,0 18.125,8.9543 18.125,20 0,11.0457 -8.115,20 -18.125,20 h -72.5 c -10.01,0 -18.125,-8.9543 -18.125,-20 0,-11.0457 8.115,-20 18.125,-20 z"/><path style="fill:none;fill-opacity:0;stroke:#000;stroke-width:2" id="path2" d="m 442.625,22.3334 h 72.5 c 10.01,0 18.125,8.9543 18.125,20 0,11.0457 -8.115,20 -18.125,20 h -72.5 c -10.01,0 -18.125,-8.9543 -18.125,-20 0,-11.0457 8.115,-20 18.125,-20"/><text font-size="12.8" style="font-style:normal;font-weight:400;font-family:sans-serif;text-anchor:middle;fill:#000" id="text2" x="478.875" y="47.933"><tspan id="tspan2" x="478.875" y="47.933">import foo</tspan></text></g><g id="g4" transform="matrix(0.52674974,0,0,0.52674974,-35.850203,8.8272705)"><polygon style="fill:#fff" id="polygon2" points="412.952 179.945 478.81 126.557 544.668 179.945 478.81 233.333"/><polygon style="fill:none;fill-opacity:0;stroke:#000;stroke-width:2" id="polygon3" points="412.952 179.945 478.81 126.557 544.668 179.945 478.81 233.333"/><text font-size="12.8" style="font-style:normal;font-weight:400;font-family:sans-serif;text-anchor:middle;fill:#000" id="text4" x="478.81" y="177.645"><tspan id="tspan3" x="478.81" y="177.645">foo.py</tspan><tspan id="tspan4" x="478.81" y="193.645">found?</tspan></text></g><g id="g5" transform="matrix(0.52674974,0,0,0.52674974,-35.850203,8.8272705)"><line style="fill:none;fill-opacity:0;stroke:#000;stroke-width:2" id="line4" x1="478.874" x2="478.82" y1="62.333" y2="116.821"/><polygon style="fill:#000" id="polygon4" points="483.822 114.326 478.812 124.321 473.822 114.316 478.82 116.821"/><polygon style="fill:none;fill-opacity:0;stroke:#000;stroke-width:2" id="polygon5" points="483.822 114.326 478.812 124.321 473.822 114.316 478.82 116.821"/></g><g id="g7" transform="matrix(0.52674974,0,0,0.52674974,-35.850203,8.8272705)"><rect style="fill:#fff" id="rect5" width="137.05" height="54" x="410.224" y="561"/><rect style="fill:none;fill-opacity:0;stroke:#000;stroke-width:2" id="rect6" width="137.05" height="54" x="410.224" y="561"/><text font-size="12.8" style="font-style:normal;font-weight:400;font-family:sans-serif;text-anchor:middle;fill:#000" id="text7" x="478.749" y="585.7"><tspan id="tspan6" x="478.749" y="585.7">load pycache/</tspan><tspan id="tspan7" x="478.749" y="601.7">foo.&lt;magic&gt;.pyc</tspan></text></g><g id="g8" transform="matrix(0.52674974,0,0,0.52674974,-35.850203,8.8272705)"><line style="fill:none;fill-opacity:0;stroke:#000;stroke-width:2" id="line7" x1="478.81" x2="478.846" y1="233.334" y2="296.508"/><polygon style="fill:#000" id="polygon7" points="483.845 294.005 478.851 304.008 473.845 294.011 478.846 296.508"/><polygon style="fill:none;fill-opacity:0;stroke:#000;stroke-width:2" id="polygon8" points="483.845 294.005 478.851 304.008 473.845 294.011 478.846 296.508"/></g><text font-size="6.742" style="font-style:normal;font-weight:400;font-family:sans-serif;text-anchor:start;fill:#000;stroke-width:.52675" id="text8" x="201.363" y="136.652"><tspan id="tspan8" x="201.363" y="136.652" style="stroke-width:.52675">yes</tspan></text><g id="g12" transform="matrix(0.52674974,0,0,0.52674974,-35.850203,8.8272705)"><polygon style="fill:#fff" id="polygon9" points="375.088 397.247 478.852 306.244 582.617 397.247 478.852 488.251"/><polygon style="fill:none;fill-opacity:0;stroke:#000;stroke-width:2" id="polygon10" points="375.088 397.247 478.852 306.244 582.617 397.247 478.852 488.251"/><text font-size="12.8" style="font-style:normal;font-weight:400;font-family:sans-serif;text-anchor:middle;fill:#000" id="text12" x="478.852" y="386.947"><tspan id="tspan10" x="478.852" y="386.947">matching</tspan><tspan id="tspan11" x="478.852" y="402.947">pycache/</tspan><tspan id="tspan12" x="478.852" y="418.947">foo.&lt;magic&gt;.pyc?</tspan></text></g><g id="g13" transform="matrix(0.52674974,0,0,0.52674974,-35.850203,8.8272705)"><line style="fill:none;fill-opacity:0;stroke:#000;stroke-width:2" id="line12" x1="478.75" x2="478.788" y1="615" y2="782.832"/><polygon style="fill:#000" id="polygon12" points="483.787 780.331 478.789 790.332 473.787 780.333 478.788 782.832"/><polygon style="fill:none;fill-opacity:0;stroke:#000;stroke-width:2" id="polygon13" points="483.787 780.331 478.789 790.332 473.787 780.333 478.788 782.832"/></g><text font-size="6.742" style="font-style:normal;font-weight:400;font-family:sans-serif;text-anchor:start;fill:#000;stroke-width:.52675" id="text13" x="153.956" y="212.855"><tspan id="tspan13" x="153.956" y="212.855" style="stroke-width:.52675">no</tspan></text><g id="g15" transform="matrix(0.52674974,0,0,0.52674974,-35.850203,8.8272705)"><line style="fill:none;fill-opacity:0;stroke:#000;stroke-width:2" id="line13" x1="478.852" x2="478.764" y1="488.25" y2="551.264"/><polygon style="fill:#000" id="polygon14" points="483.767 548.771 478.753 558.764 473.767 548.757 478.764 551.264"/><polygon style="fill:none;fill-opacity:0;stroke:#000;stroke-width:2" id="polygon15" points="483.767 548.771 478.753 558.764 473.767 548.757 478.764 551.264"/></g><text font-size="6.742" style="font-style:normal;font-weight:400;font-family:sans-serif;text-anchor:start;fill:#000;stroke-width:.52675" id="text15" x="202.539" y="272.606"><tspan id="tspan15" x="202.539" y="272.606" style="stroke-width:.52675">yes</tspan></text><g id="g16" transform="matrix(0.52674974,0,0,0.52674974,-35.850203,8.8272705)"><path style="fill:#0f0" id="path15" d="m 450.767,792.568 h 56.05 c 7.738,0 14.012,8.954 14.012,20 0,11.046 -6.274,20 -14.012,20 h -56.05 c -7.739,0 -14.013,-8.954 -14.013,-20 0,-11.046 6.274,-20 14.013,-20 z"/><path style="fill:none;fill-opacity:0;stroke:#000;stroke-width:2" id="path16" d="m 450.767,792.568 h 56.05 c 7.738,0 14.012,8.954 14.012,20 0,11.046 -6.274,20 -14.012,20 h -56.05 c -7.739,0 -14.013,-8.954 -14.013,-20 0,-11.046 6.274,-20 14.013,-20"/><text font-size="12.8" style="font-style:normal;font-weight:400;font-family:sans-serif;text-anchor:middle;fill:#000" id="text16" x="478.792" y="818.168"><tspan id="tspan16" x="478.792" y="818.168">success</tspan></text></g><g id="g17" transform="matrix(0.52674974,0,0,0.52674974,-35.850203,8.8272705)"><polyline style="fill:none;fill-opacity:0;stroke:#000;stroke-width:2" id="polyline16" points="1.857 416.142 1.857 493.334 101.564 493.334 101.564 527.502"/><polygon style="fill:#000" id="polygon16" points="106.564 525.002 101.564 535.002 96.564 525.002 101.564 527.502"/><polygon style="fill:none;fill-opacity:0;stroke:#000;stroke-width:2" id="polygon17" points="106.564 525.002 101.564 535.002 96.564 525.002 101.564 527.502"/></g><g id="g20" transform="matrix(0.52674974,0,0,0.52674974,-35.850203,8.8272705)"><polygon style="fill:#fff" id="polygon18" points="135.447 397.069 214 330.914 292.553 397.069 214 463.225"/><polygon style="fill:none;fill-opacity:0;stroke:#000;stroke-width:2" id="polygon19" points="135.447 397.069 214 330.914 292.553 397.069 214 463.225"/><text font-size="12.8" style="font-style:normal;font-weight:400;font-family:sans-serif;text-anchor:middle;fill:#000" id="text20" x="214" y="394.769"><tspan id="tspan19" x="214" y="394.769">pycache/</tspan><tspan id="tspan20" x="214" y="410.769">exists?</tspan></text></g><g id="g21" transform="matrix(0.52674974,0,0,0.52674974,-35.850203,8.8272705)"><path style="fill:#c55b5b" id="path20" d="m 862.687,793.316 h 79.7 c 11.004,0 19.925,8.954 19.925,20 0,11.046 -8.921,20 -19.925,20 h -79.7 c -11.004,0 -19.925,-8.954 -19.925,-20 0,-11.046 8.921,-20 19.925,-20 z"/><path style="fill:none;fill-opacity:0;stroke:#000;stroke-width:2" id="path21" d="m 862.687,793.316 h 79.7 c 11.004,0 19.925,8.954 19.925,20 0,11.046 -8.921,20 -19.925,20 h -79.7 c -11.004,0 -19.925,-8.954 -19.925,-20 0,-11.046 8.921,-20 19.925,-20"/><text font-size="12.8" style="font-style:normal;font-weight:400;font-family:sans-serif;text-anchor:middle;fill:#000" id="text21" x="902.537" y="818.916"><tspan id="tspan21" x="902.537" y="818.916">ImportError</tspan></text></g><g id="g22" transform="matrix(0.52674974,0,0,0.52674974,-35.850203,8.8272705)"><polyline style="fill:none;fill-opacity:0;stroke:#000;stroke-width:2" id="polyline21" points="820.672 179.968 902.538 179.968 902.538 783.58"/><polygon style="fill:#000" id="polygon21" points="907.538 781.08 902.538 791.08 897.538 781.08 902.538 783.58"/><polygon style="fill:none;fill-opacity:0;stroke:#000;stroke-width:2" id="polygon22" points="907.538 781.08 902.538 791.08 897.538 781.08 902.538 783.58"/></g><text font-size="6.742" style="font-style:normal;font-weight:400;font-family:sans-serif;text-anchor:start;fill:#000;stroke-width:.52675" id="text22" x="251.755" y="97.321"><tspan id="tspan22" x="251.755" y="97.321" style="stroke-width:.52675">no</tspan></text><g id="g24" transform="matrix(0.52674974,0,0,0.52674974,-35.850203,8.8272705)"><polyline style="fill:none;fill-opacity:0;stroke:#000;stroke-width:2" id="polyline22" points="214 463.224 214 493.334 101.564 493.334 101.564 527.502"/><polygon style="fill:#000" id="polygon23" points="106.564 525.002 101.564 535.002 96.564 525.002 101.564 527.502"/><polygon style="fill:none;fill-opacity:0;stroke:#000;stroke-width:2" id="polygon24" points="106.564 525.002 101.564 535.002 96.564 525.002 101.564 527.502"/></g><g id="g27" transform="matrix(0.52674974,0,0,0.52674974,-35.850203,8.8272705)"><rect style="fill:#fff" id="rect24" width="193" height="70" x="5.083" y="611"/><rect style="fill:none;fill-opacity:0;stroke:#000;stroke-width:2" id="rect25" width="193" height="70" x="5.083" y="611"/><text font-size="12.8" style="font-style:normal;font-weight:400;font-family:sans-serif;text-anchor:middle;fill:#000" id="text27" x="101.583" y="635.7"><tspan id="tspan25" x="101.583" y="635.7">write</tspan><tspan id="tspan26" x="101.583" y="651.7">pycache/</tspan><tspan id="tspan27" x="101.583" y="667.7">foo.&lt;magic&gt;.pyc</tspan></text></g><text font-size="6.742" style="font-style:normal;font-weight:400;font-family:sans-serif;text-anchor:start;fill:#000;stroke-width:.52675" id="text28" x="81.001" y="258.261"><tspan id="tspan28" x="81.001" y="258.261" style="stroke-width:.52675">yes</tspan></text><text font-size="6.742" style="font-style:normal;font-weight:400;font-family:sans-serif;text-anchor:start;fill:#000;stroke-width:.52675" id="text29" x="27.711" y="210.396"><tspan id="tspan29" x="27.711" y="210.396" style="stroke-width:.52675">no</tspan></text><g id="g30" transform="matrix(0.52674974,0,0,0.52674974,-35.850203,8.8272705)"><line style="fill:none;fill-opacity:0;stroke:#000;stroke-width:2" id="line29" x1="375.088" x2="302.29" y1="397.246" y2="397.089"/><polygon style="fill:#000" id="polygon29" points="304.779 402.094 294.79 397.073 304.801 392.094 302.29 397.089"/><polygon style="fill:none;fill-opacity:0;stroke:#000;stroke-width:2" id="polygon30" points="304.779 402.094 294.79 397.073 304.801 392.094 302.29 397.089"/></g><g id="g31" transform="matrix(0.52674974,0,0,0.52674974,-35.850203,8.8272705)"><rect style="fill:#fff" id="rect30" width="150.3" height="38" x="-73.293" y="378.142"/><rect style="fill:none;fill-opacity:0;stroke:#000;stroke-width:2" id="rect31" width="150.3" height="38" x="-73.293" y="378.142"/><text font-size="12.8" style="font-style:normal;font-weight:400;font-family:sans-serif;text-anchor:middle;fill:#000" id="text31" x="1.857" y="402.842"><tspan id="tspan31" x="1.857" y="402.842">create pycache/</tspan></text></g><g id="g32" transform="matrix(0.52674974,0,0,0.52674974,-35.850203,8.8272705)"><line style="fill:none;fill-opacity:0;stroke:#000;stroke-width:2" id="line31" x1="135.447" x2="86.743" y1="397.068" y2="397.13"/><polygon style="fill:#000" id="polygon31" points="89.25 402.127 79.243 397.139 89.237 392.127 86.743 397.13"/><polygon style="fill:none;fill-opacity:0;stroke:#000;stroke-width:2" id="polygon32" points="89.25 402.127 79.243 397.139 89.237 392.127 86.743 397.13"/></g><g id="g34" transform="matrix(0.52674974,0,0,0.52674974,-35.850203,8.8272705)"><polyline style="fill:none;fill-opacity:0;stroke:#000;stroke-width:2" id="polyline32" points="101.583 681 101.583 720.822 478.79 720.822 478.79 782.832"/><polygon style="fill:#000" id="polygon33" points="483.79 780.332 478.79 790.332 473.79 780.332 478.79 782.832"/><polygon style="fill:none;fill-opacity:0;stroke:#000;stroke-width:2" id="polygon34" points="483.79 780.332 478.79 790.332 473.79 780.332 478.79 782.832"/></g><g id="g38" transform="matrix(0.52674974,0,0,0.52674974,-35.850203,8.8272705)"><polygon style="fill:#fff" id="polygon35" points="663.084 179.968 741.878 117.723 820.672 179.968 741.878 242.212"/><polygon style="fill:none;fill-opacity:0;stroke:#000;stroke-width:2" id="polygon36" points="663.084 179.968 741.878 117.723 820.672 179.968 741.878 242.212"/><text font-size="12.8" style="font-style:normal;font-weight:400;font-family:sans-serif;text-anchor:middle;fill:#000" id="text38" x="741.878" y="169.668"><tspan id="tspan36" x="741.878" y="169.668">matching</tspan><tspan id="tspan37" x="741.878" y="185.668">foo.pyc</tspan><tspan id="tspan38" x="741.878" y="201.668">found?</tspan></text></g><g id="g39" transform="matrix(0.52674974,0,0,0.52674974,-35.850203,8.8272705)"><line style="fill:none;fill-opacity:0;stroke:#000;stroke-width:2" id="line38" x1="544.668" x2="653.348" y1="179.945" y2="179.966"/><polygon style="fill:#000" id="polygon38" points="650.849 174.965 660.848 179.967 650.847 184.965 653.348 179.966"/><polygon style="fill:none;fill-opacity:0;stroke:#000;stroke-width:2" id="polygon39" points="650.849 174.965 660.848 179.967 650.847 184.965 653.348 179.966"/></g><g id="g40" transform="matrix(0.52674974,0,0,0.52674974,-35.850203,8.8272705)"><rect style="fill:#fff" id="rect39" width="129.333" height="61" x="677.208" y="372.26"/><rect style="fill:none;fill-opacity:0;stroke:#000;stroke-width:2" id="rect40" width="129.333" height="61" x="677.208" y="372.26"/><text font-size="12.8" style="font-style:normal;font-weight:400;font-family:sans-serif;text-anchor:middle;fill:#000" id="text40" x="741.875" y="408.46"><tspan id="tspan40" x="741.875" y="408.46">load foo.pyc</tspan></text></g><g id="g41" transform="matrix(0.52674974,0,0,0.52674974,-35.850203,8.8272705)"><line style="fill:none;fill-opacity:0;stroke:#000;stroke-width:2" id="line40" x1="741.878" x2="741.874" y1="242.212" y2="362.524"/><polygon style="fill:#000" id="polygon40" points="746.874 360.024 741.874 370.024 736.874 360.024 741.874 362.524"/><polygon style="fill:none;fill-opacity:0;stroke:#000;stroke-width:2" id="polygon41" points="746.874 360.024 741.874 370.024 736.874 360.024 741.874 362.524"/></g><g id="g43" transform="matrix(0.52674974,0,0,0.52674974,-35.850203,8.8272705)"><polyline style="fill:none;fill-opacity:0;stroke:#000;stroke-width:2" id="polyline41" points="741.874 433.26 741.874 720.634 478.79 720.634 478.79 782.832"/><polygon style="fill:#000" id="polygon42" points="483.79 780.332 478.79 790.332 473.79 780.332 478.79 782.832"/><polygon style="fill:none;fill-opacity:0;stroke:#000;stroke-width:2" id="polygon43" points="483.79 780.332 478.79 790.332 473.79 780.332 478.79 782.832"/></g><text font-size="6.742" style="font-style:normal;font-weight:400;font-family:sans-serif;text-anchor:start;fill:#000;stroke-width:.52675" id="text43" x="399.842" y="98.656"><tspan id="tspan43" x="399.842" y="98.656" style="stroke-width:.52675">no</tspan></text><text font-size="6.742" style="font-style:normal;font-weight:400;font-family:sans-serif;text-anchor:start;fill:#000;stroke-width:.52675" id="text44" x="338.739" y="144.307"><tspan id="tspan44" x="338.739" y="144.307" style="stroke-width:.52675">yes</tspan></text><g id="g45" transform="matrix(0.52674974,0,0,0.52674974,-35.850203,8.8272705)"><rect style="fill:#fff" id="rect44" width="149.05" height="38" x="27.039" y="537.238"/><rect style="fill:none;fill-opacity:0;stroke:#000;stroke-width:2" id="rect45" width="149.05" height="38" x="27.039" y="537.238"/><text font-size="12.8" style="font-style:normal;font-weight:400;font-family:sans-serif;text-anchor:middle;fill:#000" id="text45" x="101.564" y="561.938"><tspan id="tspan45" x="101.564" y="561.938">byte compile foo.py</tspan></text></g><g id="g46" transform="matrix(0.52674974,0,0,0.52674974,-35.850203,8.8272705)"><line style="fill:none;fill-opacity:0;stroke:#000;stroke-width:2" id="line45" x1="101.564" x2="101.578" y1="575.238" y2="601.264"/><polygon style="fill:#000" id="polygon45" points="106.577 598.761 101.582 608.764 96.577 598.767 101.578 601.264"/><polygon style="fill:none;fill-opacity:0;stroke:#000;stroke-width:2" id="polygon46" points="106.577 598.761 101.582 608.764 96.577 598.767 101.578 601.264"/></g></svg>